<svg xmlns="http://www.w3.org/2000/svg" width="600" height="600" fill="none" viewBox="0 0 600 600"><path fill="#ECECEC" d="M163.294 47H437.491C501.918 47 553.785 98.8668 553.785 163.294V437.491C553.785 501.918 501.918 553.785 437.491 553.785H163.294C98.8671 553.785 47 501.918 47 437.491V163.294C47 98.8668 98.8671 47 163.294 47V47Z"/><path fill="#4285F4" d="M123.82 453.096H188.732V295.451L96 225.902V425.277C96 440.67 108.473 453.096 123.82 453.096Z"/><path fill="#34A853" d="M411.29 453.096H476.203C491.597 453.096 504.023 440.624 504.023 425.277V225.902L411.29 295.451"/><path fill="#FBBC04" d="M411.29 174.899V295.451L504.023 225.902V188.809C504.023 154.405 464.751 134.792 437.255 155.425"/><path fill="#EA4335" d="M188.732 295.451V174.899L300.011 258.358L411.29 174.899V295.451L300.011 378.91"/><path fill="#C5221F" d="M96 188.809V225.902L188.732 295.451V174.899L162.767 155.425C135.226 134.792 96 154.405 96 188.809"/></svg>